<svg viewBox="0 0 100 100" fill="none" xmlns="http://www.w3.org/2000/svg">
  <defs>
    <linearGradient id="g" x1="0%" y1="0%" x2="100%" y2="100%">
      <stop offset="0%" stop-color="#00E5FF"/>
      <stop offset="100%" stop-color="#2979FF"/>
    </linearGradient>
  </defs>

  <!-- Background -->
  <rect width="100" height="100" rx="18" fill="#0a0f1e"/>

  <!-- Corner Brackets -->
  <path d="M10 30 V10 H30 M70 10 H90 V30 M90 70 V90 H70 M30 90 H10 V75"
    stroke="url(#g)" stroke-width="1.2" opacity="0.4" fill="none"/>

  <!-- Axis lines & dots -->
  <path d="M50 5 V20 M50 95 V80 M5 50 H20 M95 50 H80"
    stroke="url(#g)" stroke-width="1.2" opacity="0.4" fill="none"/>
  <circle cx="50" cy="20" r="1.5" fill="url(#g)"/>
  <circle cx="50" cy="80" r="1.5" fill="url(#g)"/>
  <circle cx="20" cy="50" r="1.5" fill="url(#g)"/>
  <circle cx="80" cy="50" r="1.5" fill="url(#g)"/>

  <!-- NK Monogram -->
  <path d="M28 72 V28 L48 72 V28 M48 50 L72 26 M48 50 L72 74"
    stroke="url(#g)" stroke-width="8" stroke-linecap="butt" stroke-linejoin="miter" fill="none"/>
  <path d="M28 72 V28 L48 72 V28 M48 50 L72 26 M48 50 L72 74"
    stroke="white" stroke-width="1.5" stroke-linecap="butt" opacity="0.3" fill="none"/>
</svg>
